<svg width="100" height="200" viewBox="0 0 100 200" fill="none" xmlns="http://www.w3.org/2000/svg">
<rect x="100" y="200" width="100" height="100" transform="rotate(180 100 200)" fill="#79C8C7"/>
<path fill-rule="evenodd" clip-rule="evenodd" d="M100 200C155.228 200 200 155.228 200 100C200 44.7715 155.228 0 100 0C44.7715 0 0 44.7715 0 100C0 155.228 44.7715 200 100 200ZM100 133C118.225 133 133 118.225 133 100C133 81.7746 118.225 67 100 67C81.7746 67 67 81.7746 67 100C67 118.225 81.7746 133 100 133Z" fill="#012F34"/>
<path fill-rule="evenodd" clip-rule="evenodd" d="M0 156H4V160H0V156ZM11 156H7V160H11V156ZM11 164H7V168H11V164ZM7 172H11V176H7V172ZM11 180H7V184H11V180ZM7 188H11V192H7V188ZM11 196H7V200H11V196ZM14 156H18V160H14V156ZM14 164H18V168H14V164ZM18 172H14V176H18V172ZM14 180H18V184H14V180ZM18 188H14V192H18V188ZM14 196H18V200H14V196ZM0 164H4V168H0V164ZM21 156H25V160H21V156ZM21 164H25V168H21V164ZM25 172H21V176H25V172ZM21 180H25V184H21V180ZM25 188H21V192H25V188ZM21 196H25V200H21V196ZM0 172H4V176H0V172ZM28 156H32V160H28V156ZM28 164H32V168H28V164ZM32 172H28V176H32V172ZM28 180H32V184H28V180ZM32 188H28V192H32V188ZM28 196H32V200H28V196ZM0 180H4V184H0V180ZM35 156H39V160H35V156ZM35 164H39V168H35V164ZM39 172H35V176H39V172ZM35 180H39V184H35V180ZM39 188H35V192H39V188ZM35 196H39V200H35V196ZM0 188H4V192H0V188ZM42 156H46V160H42V156ZM42 164H46V168H42V164ZM46 172H42V176H46V172ZM42 180H46V184H42V180ZM46 188H42V192H46V188ZM42 196H46V200H42V196ZM0 196H4V200H0V196ZM49 156H53V160H49V156ZM49 164H53V168H49V164ZM53 172H49V176H53V172ZM49 180H53V184H49V180ZM53 188H49V192H53V188ZM49 196H53V200H49V196Z" fill="#F67E7E"/>
</svg>
